<?xml version="1.0" encoding="utf-8"?>
<COLLADA xmlns="http://www.collada.org/2005/11/COLLADASchema" version="1.4.1" xmlns:xsi="http://www.w3.org/2001/XMLSchema-instance">
  <asset>
    <contributor>
      <author>Blender User</author>
      <authoring_tool>Blender 4.2.9 LTS commit date:2025-04-14, commit time:12:24, hash:a10f621e649a</authoring_tool>
    </contributor>
    <created>2025-05-02T16:45:02</created>
    <modified>2025-05-02T16:45:02</modified>
    <unit name="meter" meter="1"/>
    <up_axis>Z_UP</up_axis>
  </asset>
  <library_images/>
  <library_geometries>
    <geometry id="Hammer-mesh" name="Hammer">
      <mesh>
        <source id="Hammer-mesh-positions">
          <float_array id="Hammer-mesh-positions-array" count="18">-1.636554 0.479073 5.295452 1.636554 6.302742 3.716007 1.636555 0.479073 5.295452 -1.636555 6.302742 3.716007 -1.636555 -0.111084 -0.593197 1.636554 -0.111099 -0.593197</float_array>
          <technique_common>
            <accessor source="#Hammer-mesh-positions-array" count="6" stride="3">
              <param name="X" type="float"/>
              <param name="Y" type="float"/>
              <param name="Z" type="float"/>
            </accessor>
          </technique_common>
        </source>
        <source id="Hammer-mesh-normals">
          <float_array id="Hammer-mesh-normals-array" count="21">0 0.2617554 0.9651343 -4.56633e-6 -0.9950154 0.09972238 0 -0.9950156 0.09971988 -1 -1.6244e-7 1.73643e-7 1 0 -1.73644e-7 0 0.5576812 -0.8300554 2.51351e-6 0.557682 -0.8300547</float_array>
          <technique_common>
            <accessor source="#Hammer-mesh-normals-array" count="7" stride="3">
              <param name="X" type="float"/>
              <param name="Y" type="float"/>
              <param name="Z" type="float"/>
            </accessor>
          </technique_common>
        </source>
        <source id="Hammer-mesh-map-0">
          <float_array id="Hammer-mesh-map-0-array" count="48">0.968803 0.805852 0.97186 0.805852 0.97186 0.810538 0.97186 0.810538 0.968803 0.810538 0.968803 0.805852 0.964723 0.806247 0.967781 0.806247 0.967781 0.810456 0.967781 0.810456 0.964723 0.810456 0.964723 0.806247 0.957472 0.806349 0.959208 0.810558 0.963893 0.809646 0.963893 0.809646 0.959208 0.810558 0.957472 0.806349 0.968803 0.810538 0.97186 0.810538 0.967781 0.806247 0.968803 0.810538 0.967781 0.806247 0.964723 0.806247</float_array>
          <technique_common>
            <accessor source="#Hammer-mesh-map-0-array" count="24" stride="2">
              <param name="S" type="float"/>
              <param name="T" type="float"/>
            </accessor>
          </technique_common>
        </source>
        <vertices id="Hammer-mesh-vertices">
          <input semantic="POSITION" source="#Hammer-mesh-positions"/>
        </vertices>
        <triangles count="8">
          <input semantic="VERTEX" source="#Hammer-mesh-vertices" offset="0"/>
          <input semantic="NORMAL" source="#Hammer-mesh-normals" offset="1"/>
          <input semantic="TEXCOORD" source="#Hammer-mesh-map-0" offset="2" set="0"/>
          <p>0 0 0 2 0 1 1 0 2 1 0 3 3 0 4 0 0 5 4 1 6 5 1 7 2 1 8 2 2 9 0 2 10 4 2 11 4 3 12 0 3 13 3 3 14 1 4 15 2 4 16 5 4 17 3 5 18 1 5 19 5 5 20 3 6 21 5 6 22 4 6 23</p>
        </triangles>
      </mesh>
    </geometry>
    <geometry id="Musket-mesh" name="Musket">
      <mesh>
        <source id="Musket-mesh-positions">
          <float_array id="Musket-mesh-positions-array" count="249">-3.07445 -23.33517 -8.744282 2.969189 -19.92905 -4.008934 -2.941512 -19.92905 -4.008934 3.102132 -23.33517 -8.744282 -4.251063 -69.07687 -25.45037 4.728369 -65.96312 0.873886 4.278743 -69.07687 -25.45037 0.01383996 -65.96312 2.156235 3.319428 -19.92905 9.928082 3.918219 -33.76167 0.829544 2.22741 48.74269 2.984756 -2.199731 48.74269 10.16524 -2.199731 48.74269 2.984756 0.01383996 48.74269 11.44759 -3.890539 -33.76167 0.829544 -3.300391 -19.92905 9.928082 -2.356095 -6.895615 -4.00893 2.383774 -6.895615 -4.00893 3.11191 -6.784241 10.16524 -3.092871 -6.784241 10.16524 -2.530265 6.97023 0.307812 2.557944 6.97023 0.307812 -3.130883 6.940048 10.16524 3.149922 6.940048 10.16524 2.22741 48.74269 10.16524 -4.70069 -65.96312 0.873886 2.070668 48.72894 7.892445 2.070665 284.7376 7.892441 0.865804 284.7376 6.68758 0.865806 48.72894 6.687584 -0.838129 284.7376 6.68758 -0.838125 48.72894 6.687584 -2.04299 284.7376 7.892441 -2.042987 48.72894 7.892445 -2.04299 284.7376 9.596371 -2.042987 48.72894 9.596371 -0.838128 284.7376 10.80123 -0.838125 48.72894 10.80124 0.865804 284.7376 10.80123 0.865807 48.72894 10.80124 2.070665 284.7376 9.596371 2.070668 48.72894 9.596371 0.01383799 71.27475 8.744404 1.565448 -9.028336 -4.017269 1.565447 -13.2457 -8.754405 1.565448 -9.998612 -4.017082 1.565446 -12.94658 -9.50145 1.565446 -18.52631 -9.375582 1.565446 -18.62445 -10.15677 1.565446 -22.61285 -7.71945 1.565446 -23.05215 -8.330311 -1.537768 -9.028336 -4.017269 -1.537768 -13.2457 -8.754405 -1.537768 -12.94658 -9.50145 -1.537767 -9.998612 -4.017082 -1.53777 -18.52631 -9.375582 -1.53777 -18.62445 -10.15677 -1.537769 -22.61285 -7.71945 -1.537769 -23.05212 -8.330307 -0.511214 -17.62972 -7.524893 0.902817 -17.01524 -7.258327 -0.511214 -17.01524 -7.258327 0.902817 -17.62972 -7.524893 0.902817 -19.01494 -4.021999 -0.511214 -19.01494 -4.021999 0.902817 -18.40047 -3.755432 -0.511214 -18.40047 -3.755432 -0.01246297 67.62158 14.29936 0.714118 69.36276 10.76144 -0.01246297 63.25317 10.76144 -0.739044 69.36276 10.76144 0.01383996 6.940048 11.44759 0.01383996 -6.784241 11.44759 0.01383894 -19.92905 11.21043 0.01383996 -33.76167 2.111893 -1.454128 48.69063 4.586418 -0.06703299 62.08986 3.199322 -1.454127 62.08986 4.586418 -0.06703197 48.69063 3.199322 -0.06703299 48.69063 5.973515 1.320063 62.08986 4.586418 1.320063 48.69063 4.586418 -0.06703299 62.08986 5.973515</float_array>
          <technique_common>
            <accessor source="#Musket-mesh-positions-array" count="83" stride="3">
              <param name="X" type="float"/>
              <param name="Y" type="float"/>
              <param name="Z" type="float"/>
            </accessor>
          </technique_common>
        </source>
        <source id="Musket-mesh-normals">
          <float_array id="Musket-mesh-normals-array" count="393">0 0.8118047 -0.5839292 0 0.8118051 -0.5839287 -1.77846e-4 -0.9932109 0.1163281 0 -0.9930769 0.1174665 0.02427613 -0.9937168 0.1092595 0.002292633 -0.9937362 0.1117285 0.9977672 0.06268697 -0.02304768 0.9969626 0.0737431 -0.02505379 0.9978976 0.06071054 -0.02268624 0.9978986 0.06069636 -0.02268457 0.9980836 0.0577777 -0.02215451 0.9977681 0.06267309 -0.02304428 0 1 0 0 1 7.07354e-7 -0.9979097 0.06104314 -0.02121698 -0.9978989 0.0625301 -0.01696318 -0.9979082 0.06042557 -0.02298164 -0.9979079 0.06039446 -0.02307176 -0.9978991 0.0594756 -0.02569591 -0.9979097 0.06102764 -0.02126175 0 3.29271e-7 -1 0.9986782 0.04485702 -0.02509689 0.9985374 0.01669186 -0.05142658 -0.9995367 0.01624429 -0.02573812 -0.9976304 0.04481011 -0.05220907 0 0.29725 -0.9547997 0 0.2972501 -0.9547997 -0.9986491 -0.002765893 -0.05188816 -0.9981298 0.006389737 -0.06079691 0.9986759 0.003435492 -0.05132955 0.9981973 -0.002764642 -0.05995416 0 0.06395274 -0.9979529 0 0.06395274 -0.997953 -0.9979065 0.0222283 -0.0607348 -0.9999688 0.007912456 0 0.9981351 0.01173698 -0.059906 0.9997566 0.02206283 0 0 0.3430621 -0.9393128 0 0.343062 -0.9393128 0.9980137 0.02502918 -0.05781376 0.9992219 0.03337818 -0.0210151 -0.9983388 0.0406087 -0.04087454 -0.9994837 0.02511823 -0.02004259 0.9238793 0 -0.3826842 0.3826841 0 -0.9238793 0.9238798 0 -0.3826828 0.3826826 0 -0.9238799 -0.3826829 0 -0.9238798 -0.3826839 0 -0.9238795 -0.9238793 0 -0.382684 -0.9238798 0 -0.3826831 -0.9238801 0 0.3826825 -0.9238798 0 0.3826829 -0.3826845 0 0.9238792 -0.3826841 0 0.9238794 0.3826835 0 0.9238796 0.3826854 0 0.9238787 0.9238796 0 0.3826835 0.9238803 0 0.3826814 -0.7070738 0.009635031 0.7070742 0 0.009635031 0.9999536 0.7070739 0.009635031 0.7070741 0.9999536 0.009635031 0 0.7070748 0.00963509 -0.7070732 0 0.00963509 -0.9999536 -0.7070751 0.009635031 -0.7070729 -0.9999536 0.009635031 0 1 0 -2.26445e-7 1 4.17589e-7 -9.50824e-7 1 0 -1.28823e-6 1 0 0 1 -1.42131e-7 0 1 1.35964e-7 0 -1 0 0 -1 -9.96773e-7 8.74894e-7 -1 3.27259e-7 0 -1 3.46315e-7 1.38119e-7 -1 -2.03952e-7 1.19453e-7 -1 -2.84263e-7 0 0 0.8136653 -0.5813337 0 0.5078383 -0.8614524 0 0.5078266 -0.8614593 -9.07928e-7 -0.1377298 -0.9904699 0 -0.1377318 -0.9904696 -4.80328e-6 -0.3813374 -0.9244359 -3.04529e-6 -0.3813384 -0.9244356 0 0.3755933 0.9267846 0 0.1335713 0.9910392 0 0.1335731 0.991039 0 0.3755934 0.9267846 0 -0.5171369 0.8559029 0 -0.5171425 0.8558994 0 -0.8248397 0.5653667 0 -0.8248398 0.5653668 0 0.3979767 -0.9173955 0 -0.9299286 -0.3677404 0 -0.9299283 -0.367741 0 0.9299281 0.3677415 0 0.9299283 0.3677409 0.9826116 -0.1168569 0.1442877 0 0.8972302 0.4415633 -0.9826116 -0.1168569 0.1442877 -0.0317887 -0.9926384 0.1168704 -0.5012725 0 0.8652896 -0.3775773 0.008410513 0.92594 0.3784825 0 0.9256085 0.5012416 0.01106154 0.8652368 0.382451 0 0.9239758 0.3784815 -0.001048266 0.9256083 -0.37759 -0.001045763 0.9259724 -0.3815423 0 0.9243515 -0.3814886 -0.01667487 0.9242232 -0.3608301 -0.01112896 0.9325652 0.3823972 -0.01666814 0.9238477 0.3616502 -0.01111036 0.9322476 -0.309695 -0.5132623 0.8004067 -0.2646188 -0.5299483 0.8056871 0.3083171 -0.522766 0.7947682 0.2662222 -0.5216351 0.8105693 -0.3120391 0.001308262 0.9500684 -0.2624553 0.007931768 0.9649116 0.2624634 0.001328706 0.9649411 0.3120264 0.009158372 0.9500294 -0.7071072 0 -0.7071064 -0.707107 0 -0.7071067 0.7071068 0 0.7071068 0.7071071 0 0.7071065 0.7071067 0 -0.707107 0.7071072 0 -0.7071064 -0.7071074 0 0.7071062 -0.7071074 0 0.7071062</float_array>
          <technique_common>
            <accessor source="#Musket-mesh-normals-array" count="131" stride="3">
              <param name="X" type="float"/>
              <param name="Y" type="float"/>
              <param name="Z" type="float"/>
            </accessor>
          </technique_common>
        </source>
        <source id="Musket-mesh-map-0">
          <float_array id="Musket-mesh-map-0-array" count="762">0.938074 0.836767 0.938142 0.838517 0.941179 0.838517 0.941179 0.838517 0.941247 0.836767 0.938074 0.836767 0.939302 0.843715 0.940019 0.843715 0.940019 0.844432 0.940019 0.844432 0.939661 0.844432 0.939302 0.843715 0.955069 0.83659 0.95701 0.83834 0.964715 0.83834 0.964715 0.83834 0.960163 0.831233 0.955069 0.83659 0.939302 0.843715 0.940019 0.843715 0.940019 0.844432 0.940019 0.844432 0.939661 0.844432 0.939302 0.843715 0.95701 0.83834 0.955069 0.83659 0.960163 0.831233 0.960163 0.831233 0.964715 0.83834 0.95701 0.83834 0.941179 0.838517 0.938142 0.838517 0.938443 0.845213 0.938443 0.845213 0.940878 0.845213 0.941179 0.838517 0.964715 0.83834 0.95701 0.83834 0.95701 0.845036 0.95701 0.845036 0.964834 0.845093 0.964715 0.83834 0.95701 0.83834 0.964715 0.83834 0.964834 0.845093 0.964834 0.845093 0.95701 0.845036 0.95701 0.83834 0.940878 0.845213 0.938443 0.845213 0.938134 0.852337 0.938134 0.852337 0.941187 0.852337 0.940878 0.845213 0.95701 0.845036 0.964834 0.845093 0.964834 0.852144 0.964834 0.852144 0.960296 0.85216 0.95701 0.845036 0.964834 0.845093 0.95701 0.845036 0.960296 0.85216 0.960296 0.85216 0.964834 0.852144 0.964834 0.845093 0.941187 0.852337 0.938134 0.852337 0.938523 0.874881 0.938523 0.874881 0.940798 0.874881 0.941187 0.852337 0.960296 0.85216 0.964834 0.852144 0.964834 0.874704 0.964834 0.874704 0.961957 0.874704 0.960296 0.85216 0.964834 0.852144 0.960296 0.85216 0.961957 0.874704 0.961957 0.874704 0.964834 0.874704 0.964834 0.852144 0.938074 0.836767 0.941247 0.836767 0.94159 0.813267 0.94159 0.813267 0.937731 0.813267 0.938074 0.836767 0.955069 0.83659 0.960163 0.831233 0.960185 0.814689 0.960185 0.814689 0.944391 0.81309 0.955069 0.83659 0.960163 0.831233 0.955069 0.83659 0.944391 0.81309 0.944391 0.81309 0.960185 0.814689 0.960163 0.831233 0.947395 0.797897 0.946174 0.811052 0.947395 0.811052 0.947395 0.797897 0.946174 0.797897 0.946174 0.811052 0.946174 0.797897 0.944952 0.811052 0.946174 0.811052 0.946174 0.797897 0.944952 0.797897 0.944952 0.811052 0.944952 0.797897 0.94373 0.811052 0.944952 0.811052 0.944952 0.797897 0.94373 0.797897 0.94373 0.811052 0.94373 0.797897 0.942509 0.811052 0.94373 0.811052 0.94373 0.797897 0.942509 0.797897 0.942509 0.811052 0.942509 0.797897 0.941287 0.811052 0.942509 0.811052 0.942509 0.797897 0.941287 0.797897 0.941287 0.811052 0.941287 0.797897 0.940066 0.811052 0.941287 0.811052 0.941287 0.797897 0.940066 0.797897 0.940066 0.811052 0.940066 0.797897 0.938844 0.811052 0.940066 0.811052 0.940066 0.797897 0.938844 0.797897 0.938844 0.811052 0.948617 0.797897 0.947395 0.811052 0.948617 0.811052 0.948617 0.797897 0.947395 0.797897 0.947395 0.811052 0.935804 0.810616 0.936921 0.810154 0.936267 0.8095 0.935804 0.810616 0.936267 0.8095 0.935341 0.8095 0.935804 0.810616 0.935341 0.8095 0.934687 0.810154 0.935804 0.810616 0.934687 0.810154 0.934687 0.811079 0.935804 0.810616 0.934687 0.811079 0.935341 0.811733 0.935804 0.810616 0.935341 0.811733 0.936267 0.811733 0.935804 0.810616 0.936267 0.811733 0.936921 0.811079 0.935804 0.810616 0.936921 0.811079 0.936921 0.810154 0.953245 0.810742 0.953245 0.810369 0.951646 0.809119 0.951646 0.809119 0.951359 0.809234 0.953245 0.810742 0.951359 0.809234 0.951646 0.809119 0.951407 0.807086 0.951407 0.807086 0.951106 0.807048 0.951359 0.809234 0.951106 0.807048 0.951407 0.807086 0.952277 0.805694 0.952277 0.805694 0.952084 0.805472 0.951106 0.807048 0.953245 0.810742 0.951359 0.809234 0.951646 0.809119 0.951646 0.809119 0.953245 0.810369 0.953245 0.810742 0.951359 0.809234 0.951106 0.807048 0.951407 0.807086 0.951407 0.807086 0.951646 0.809119 0.951359 0.809234 0.951106 0.807048 0.952084 0.805472 0.952277 0.805694 0.952277 0.805694 0.951407 0.807086 0.951106 0.807048 0.955783 0.809923 0.955783 0.808037 0.954588 0.808037 0.954588 0.808037 0.954588 0.809923 0.955783 0.809923 0.954075 0.80972 0.954075 0.807534 0.95288 0.807534 0.95288 0.807534 0.95288 0.80972 0.954075 0.80972 0.954075 0.807534 0.954075 0.805958 0.95288 0.805958 0.95288 0.805958 0.95288 0.807534 0.954075 0.807534 0.954075 0.80618 0.954075 0.807572 0.95288 0.807572 0.95288 0.807572 0.95288 0.80618 0.954075 0.80618 0.954075 0.807572 0.954075 0.809605 0.95288 0.809605 0.95288 0.809605 0.95288 0.807572 0.954075 0.807572 0.955783 0.808324 0.955783 0.809923 0.954588 0.809923 0.954588 0.809923 0.954588 0.808324 0.955783 0.808324 0.975988 0.80608 0.975988 0.806631 0.977255 0.806631 0.977255 0.806631 0.977255 0.80608 0.975988 0.80608 0.976772 0.807184 0.97804 0.807184 0.97804 0.810046 0.97804 0.810046 0.976772 0.810046 0.976772 0.807184 0.975737 0.807018 0.976288 0.807257 0.975046 0.810118 0.975046 0.810118 0.974496 0.809879 0.975737 0.807018 0.97804 0.807423 0.976772 0.807423 0.976772 0.810285 0.976772 0.810285 0.97804 0.810285 0.97804 0.807423 0.976288 0.807257 0.975737 0.807018 0.974496 0.809879 0.974496 0.809879 0.975046 0.810118 0.976288 0.807257 0.951168 0.804566 0.950808 0.803253 0.951528 0.803253 0.949728 0.804566 0.949368 0.803253 0.950088 0.803253 0.950448 0.804566 0.950088 0.803253 0.950808 0.803253 0.939661 0.844432 0.939302 0.844432 0.939302 0.843715 0.939661 0.844432 0.939302 0.844432 0.939302 0.843715 0.968701 0.851383 0.968701 0.873768 0.967573 0.873768 0.968701 0.851383 0.967573 0.873768 0.967098 0.851383 0.968701 0.873768 0.968701 0.851383 0.9703 0.851383 0.968701 0.873768 0.9703 0.851383 0.969829 0.873768 0.968701 0.851383 0.968701 0.844386 0.97028 0.844386 0.968701 0.851383 0.97028 0.844386 0.9703 0.851383 0.968701 0.851383 0.967098 0.851383 0.967117 0.844386 0.968701 0.851383 0.967117 0.844386 0.968701 0.844386 0.968701 0.837685 0.968701 0.844386 0.967117 0.844386 0.968701 0.837685 0.967117 0.844386 0.967011 0.837685 0.97028 0.844386 0.968701 0.844386 0.968701 0.837685 0.97028 0.844386 0.968701 0.837685 0.970386 0.837685 0.968701 0.837685 0.967011 0.837685 0.966711 0.830634 0.968701 0.837685 0.966711 0.830634 0.968701 0.830634 0.970386 0.837685 0.968701 0.837685 0.968701 0.830634 0.970386 0.837685 0.968701 0.830634 0.970691 0.830634 0.968701 0.814218 0.968701 0.830634 0.966711 0.830634 0.968701 0.814218 0.966711 0.830634 0.966298 0.814218 0.968701 0.830634 0.968701 0.814218 0.971104 0.814218 0.968701 0.830634 0.971104 0.814218 0.970691 0.830634 0.961862 0.782864 0.961862 0.804093 0.963696 0.804093 0.963696 0.804093 0.963696 0.782864 0.961862 0.782864 0.961908 0.782864 0.963742 0.782864 0.963742 0.804093 0.963742 0.804093 0.961908 0.804093 0.961908 0.782864 0.961862 0.782864 0.961862 0.804093 0.963696 0.804093 0.963696 0.804093 0.963696 0.782864 0.961862 0.782864 0.961908 0.804093 0.961908 0.782864 0.963742 0.782864 0.963742 0.782864 0.963742 0.804093 0.961908 0.804093 0.961908 0.792539 0.963742 0.792584 0.963696 0.794418 0.961908 0.792539 0.963696 0.794418 0.961862 0.794373</float_array>
          <technique_common>
            <accessor source="#Musket-mesh-map-0-array" count="381" stride="2">
              <param name="S" type="float"/>
              <param name="T" type="float"/>
            </accessor>
          </technique_common>
        </source>
        <vertices id="Musket-mesh-vertices">
          <input semantic="POSITION" source="#Musket-mesh-positions"/>
        </vertices>
        <triangles count="127">
          <input semantic="VERTEX" source="#Musket-mesh-vertices" offset="0"/>
          <input semantic="NORMAL" source="#Musket-mesh-normals" offset="1"/>
          <input semantic="TEXCOORD" source="#Musket-mesh-map-0" offset="2" set="0"/>
          <p>0 0 0 2 0 1 1 0 2 1 1 3 3 1 4 0 1 5 4 2 6 6 3 7 5 4 8 5 4 9 7 5 10 4 2 11 3 6 12 1 7 13 8 8 14 8 9 15 9 10 16 3 11 17 10 12 18 12 12 19 11 12 20 11 13 21 13 13 22 10 13 23 2 14 24 0 15 25 14 16 26 14 17 27 15 18 28 2 19 29 1 20 30 2 20 31 16 20 32 16 20 33 17 20 34 1 20 35 8 21 36 1 21 37 17 21 38 17 22 39 18 22 40 8 22 41 2 23 42 15 23 43 19 23 44 19 24 45 16 24 46 2 24 47 17 25 48 16 25 49 20 25 50 20 26 51 21 26 52 17 26 53 16 27 54 19 27 55 22 27 56 22 28 57 20 28 58 16 28 59 18 29 60 17 29 61 21 29 62 21 30 63 23 30 64 18 30 65 21 31 66 20 31 67 12 31 68 12 32 69 10 32 70 21 32 71 20 33 72 22 33 73 11 33 74 11 34 75 12 34 76 20 34 77 23 35 78 21 35 79 10 35 80 10 36 81 24 36 82 23 36 83 0 37 84 3 37 85 6 37 86 6 38 87 4 38 88 0 38 89 3 39 90 9 39 91 5 39 92 5 40 93 6 40 94 3 40 95 14 41 96 0 41 97 4 41 98 4 42 99 25 42 100 14 42 101 26 43 102 28 44 103 27 45 104 26 43 105 29 46 106 28 44 107 29 46 108 30 47 109 28 44 110 29 46 111 31 48 112 30 47 113 31 48 114 32 49 115 30 47 116 31 48 117 33 50 118 32 49 119 33 50 120 34 51 121 32 49 122 33 50 123 35 52 124 34 51 125 35 52 126 36 53 127 34 51 128 35 52 129 37 54 130 36 53 131 37 54 132 38 55 133 36 53 134 37 54 135 39 56 136 38 55 137 39 56 138 40 57 139 38 55 140 39 56 141 41 58 142 40 57 143 41 58 144 27 45 145 40 57 146 41 58 147 26 43 148 27 45 149 42 59 150 27 59 151 28 59 152 42 60 153 28 60 154 30 60 155 42 61 156 30 61 157 32 61 158 42 62 159 32 62 160 34 62 161 42 63 162 34 63 163 36 63 164 42 64 165 36 64 166 38 64 167 42 65 168 38 65 169 40 65 170 42 66 171 40 66 172 27 66 173 43 67 174 45 67 175 44 67 176 44 68 177 46 68 178 43 68 179 46 69 180 44 69 181 47 69 182 47 70 183 48 70 184 46 70 185 48 71 186 47 71 187 49 71 188 49 72 189 50 72 190 48 72 191 51 73 192 53 73 193 52 73 194 52 74 195 54 74 196 51 74 197 53 75 198 56 75 199 55 75 200 55 76 201 52 76 202 53 76 203 56 77 204 58 77 205 57 77 206 57 78 207 55 78 208 56 78 209 43 79 210 46 80 211 53 81 212 53 81 213 51 79 214 43 79 215 46 80 216 48 82 217 56 83 218 56 83 219 53 81 220 46 80 221 48 82 222 50 84 223 58 85 224 58 85 225 56 83 226 48 82 227 49 86 228 47 87 229 55 88 230 55 88 231 57 89 232 49 86 233 47 87 234 44 90 235 52 91 236 52 91 237 55 88 238 47 87 239 44 90 240 45 92 241 54 93 242 54 93 243 52 91 244 44 90 245 59 94 246 61 94 247 60 94 248 60 94 249 62 94 250 59 94 251 59 95 252 62 95 253 63 95 254 63 96 255 64 96 256 59 96 257 62 70 258 60 70 259 65 70 260 65 70 261 63 70 262 62 70 263 60 97 264 61 97 265 66 97 266 66 98 267 65 98 268 60 98 269 61 73 270 59 73 271 64 73 272 64 73 273 66 73 274 61 73 275 67 99 276 69 99 277 68 99 278 67 100 279 68 100 280 70 100 281 67 101 282 70 101 283 69 101 284 7 5 285 25 102 286 4 2 287 13 12 288 24 12 289 10 12 290 71 103 291 13 103 292 11 103 293 71 104 294 11 104 295 22 104 296 13 105 297 71 105 298 23 105 299 13 106 300 23 106 301 24 106 302 71 107 303 72 107 304 18 107 305 71 108 306 18 108 307 23 108 308 71 109 309 22 109 310 19 109 311 71 110 312 19 110 313 72 110 314 73 111 315 72 111 316 19 111 317 73 112 318 19 112 319 15 112 320 18 113 321 72 113 322 73 113 323 18 114 324 73 114 325 8 114 326 73 115 327 15 115 328 14 115 329 73 116 330 14 116 331 74 116 332 8 117 333 73 117 334 74 117 335 8 118 336 74 118 337 9 118 338 7 119 339 74 119 340 14 119 341 7 120 342 14 120 343 25 120 344 74 121 345 7 121 346 5 121 347 74 122 348 5 122 349 9 122 350 75 123 351 77 123 352 76 123 353 76 124 354 78 124 355 75 124 356 79 125 357 81 125 358 80 125 359 80 126 360 82 126 361 79 126 362 78 127 363 76 127 364 80 127 365 80 128 366 81 128 367 78 128 368 77 129 369 75 129 370 79 129 371 79 130 372 82 130 373 77 130 374 82 12 375 80 12 376 76 12 377 82 12 378 76 12 379 77 12 380</p>
        </triangles>
      </mesh>
    </geometry>
  </library_geometries>
  <library_visual_scenes>
    <visual_scene id="Scene" name="Scene">
      <node id="Object" name="Object" type="NODE">
        <matrix sid="transform">1 0 0 0 0 7.54979e-8 -1 0 0 1 7.54979e-8 0 0 0 0 1</matrix>
        <node id="Musket" name="Musket" type="NODE">
          <matrix sid="transform">0.01 0 0 6.7032e-4 0 7.54979e-10 0.01 0 0 -0.01 7.54979e-10 -0.00292448 0 0 0 1</matrix>
          <instance_geometry url="#Musket-mesh" name="Musket"/>
        </node>
        <node id="Hammer" name="Hammer" type="NODE">
          <matrix sid="transform">0.01 0 0 1.384e-4 0 -9.81904e-5 0.009999519 0.04822007 0 -0.009999519 -9.81904e-5 0.2813276 0 0 0 1</matrix>
          <instance_geometry url="#Hammer-mesh" name="Hammer"/>
        </node>
      </node>
    </visual_scene>
  </library_visual_scenes>
  <scene>
    <instance_visual_scene url="#Scene"/>
  </scene>
</COLLADA>